<svg width="49" height="50" viewBox="0 0 49 50" fill="none" xmlns="http://www.w3.org/2000/svg">
    <g clip-path="url(#clip0_310_329)">
        <path d="M14.0931 15.9805C13.1983 15.0766 13.1983 13.593 14.0931 12.6891L23.8678 2.81978C24.7626 1.91587 26.2312 1.91587 27.126 2.81978C28.0208 3.72369 28.0208 5.20728 27.126 6.11119L17.3562 15.9805C16.4614 16.8844 14.9928 16.8844 14.098 15.9805H14.0931Z" stroke="white" stroke-width="1.53305" stroke-linecap="round" stroke-linejoin="round"/>
        <path d="M23.2261 1.07916L23.4152 1.27022C23.9619 1.82253 23.9619 2.71875 23.4152 3.27107L14.5399 12.2367C13.9932 12.789 13.106 12.789 12.5592 12.2367L12.3701 12.0456C11.8234 11.4933 11.8234 10.5971 12.3701 10.0448L21.2454 1.07916C21.7921 0.526843 22.6793 0.526843 23.2261 1.07916Z" stroke="white" stroke-width="1.53305" stroke-linecap="round" stroke-linejoin="round"/>
        <path d="M29.2949 31.3372C30.1897 32.2411 31.6584 32.2411 32.5532 31.3372L42.323 21.4679C43.2178 20.564 43.2178 19.0804 42.323 18.1765C41.4282 17.2726 39.9596 17.2726 39.0648 18.1765L29.2949 28.0458C28.4001 28.9497 28.4001 30.4333 29.2949 31.3372Z" stroke="white" stroke-width="1.53305" stroke-linecap="round" stroke-linejoin="round"/>
        <path d="M33.19 33.0774L33.0009 32.8863C32.4541 32.334 32.4541 31.4378 33.0009 30.8855L41.8761 21.9199C42.4229 21.3675 43.3101 21.3675 43.8568 21.9199L44.046 22.1109C44.5927 22.6632 44.5927 23.5594 44.046 24.1118L35.1707 33.0774C34.624 33.6297 33.7368 33.6297 33.19 33.0774Z" stroke="white" stroke-width="1.53305" stroke-linecap="round" stroke-linejoin="round"/>
        <path d="M38.5233 18.7183L26.5807 6.65411L17.8946 15.4287L29.8371 27.4929L38.5233 18.7183Z" stroke="white" stroke-width="1.53305" stroke-linecap="round" stroke-linejoin="round"/>
        <path d="M24.6823 22.2908L23.0524 20.6442L17.6227 26.1292L19.2526 27.7757L24.6823 22.2908Z" stroke="white" stroke-width="1.53305" stroke-linecap="round" stroke-linejoin="round"/>
        <path d="M18.8406 29.554L15.8558 26.5388L0.65683 41.8926L3.64161 44.9078L18.8406 29.554Z" stroke="white" stroke-width="1.53305" stroke-linecap="round" stroke-linejoin="round"/>
        <path d="M16.2669 24.7544L20.6096 29.1413C20.9062 29.441 20.9062 29.9372 20.6096 30.2368C20.313 30.5365 19.8218 30.5365 19.5251 30.2368L15.1824 25.8499C14.8858 25.5502 14.8858 25.0541 15.1824 24.7544C15.4791 24.4547 15.9703 24.4547 16.2669 24.7544Z" stroke="white" stroke-width="1.53305" stroke-linecap="round" stroke-linejoin="round"/>
        <path d="M46.1698 49.332C47.3676 49.332 48.3387 48.351 48.3387 47.141C48.3387 45.9309 47.3676 44.95 46.1698 44.95H33.1563C31.9584 44.95 30.9874 45.9309 30.9874 47.141C30.9874 48.351 31.9584 49.332 33.1563 49.332H46.1698Z" stroke="white" stroke-width="1.53305" stroke-linecap="round" stroke-linejoin="round"/>
        <path d="M46.8943 43.3632V43.6186C46.8943 44.3555 46.301 44.9499 45.5764 44.9499H33.7544C33.0249 44.9499 32.4365 44.3506 32.4365 43.6186V43.3632C32.4365 42.6263 33.0298 42.0319 33.7544 42.0319H45.5764C46.3059 42.0319 46.8943 42.6312 46.8943 43.3632Z" stroke="white" stroke-width="1.53305" stroke-linecap="round" stroke-linejoin="round"/>
    </g>
    <defs>
        <clipPath id="clip0_310_329">
            <rect width="49" height="50" fill="white"/>
        </clipPath>
    </defs>
</svg>
