<svg width="56" height="56" viewBox="0 0 56 56" fill="none" xmlns="http://www.w3.org/2000/svg">
    <g clip-path="url(#clip0_256_86)">
        <g clip-path="url(#clip1_256_86)">
            <path d="M49.6983 25.4654L20.6039 1.95487C18.5967 0.332885 15.3423 0.332884 13.3351 1.95487L2.4223 10.7733C0.415085 12.3952 0.415084 15.025 2.4223 16.647L31.5167 40.1575C33.5239 41.7795 36.7783 41.7795 38.7855 40.1575L49.6983 31.3391C51.7055 29.7171 51.7055 27.0874 49.6983 25.4654Z" stroke="white" stroke-width="1.84733" stroke-linecap="round" stroke-linejoin="round"/>
            <path d="M50.7777 30.043C50.5255 30.5167 50.1711 30.9574 49.6939 31.3429L38.7871 40.1564C36.7898 41.7704 33.5178 41.7704 31.5137 40.1564L2.42675 16.652C2.18135 16.4537 1.97003 16.2443 1.78598 16.0185C0.988426 17.5333 1.3429 19.3621 2.86984 20.596L31.9568 44.1005C33.9541 45.7144 37.2261 45.7144 39.2302 44.1005L50.137 35.287C51.8957 33.8658 52.107 31.6569 50.7777 30.043Z" stroke="white" stroke-width="1.84733" stroke-linecap="round" stroke-linejoin="round"/>
            <path d="M51.2208 33.9815C50.9686 34.4552 50.6142 34.8959 50.137 35.2815L39.2302 44.095C37.2329 45.7089 33.9609 45.7089 31.9568 44.095L2.86303 20.5905C2.61763 20.3922 2.40631 20.1829 2.22226 19.957C1.42471 21.4718 1.77918 23.3006 3.30612 24.5345L32.3931 48.039C34.3904 49.653 37.6624 49.653 39.6665 48.039L50.5733 39.2255C52.332 37.8043 52.5433 35.5955 51.214 33.9815H51.2208Z" stroke="white" stroke-width="1.84733" stroke-linecap="round" stroke-linejoin="round"/>
            <path d="M25.6786 26.5561C29.2288 26.5561 32.1067 24.2304 32.1067 21.3616C32.1067 18.4928 29.2288 16.1672 25.6786 16.1672C22.1284 16.1672 19.2504 18.4928 19.2504 21.3616C19.2504 24.2304 22.1284 26.5561 25.6786 26.5561Z" stroke="white" stroke-width="1.84733" stroke-linecap="round" stroke-linejoin="round"/>
            <path d="M22.911 23.8845L22.5361 23.5816C22.2634 23.3612 22.2634 22.9977 22.5361 22.7773L22.6997 22.6451C22.4884 22.3807 22.3452 22.0943 22.2907 21.8354C22.2361 21.5875 22.3997 21.3341 22.686 21.2295L23.2314 21.0201C23.4291 20.9485 23.654 20.9485 23.8449 21.0257C24.0358 21.1028 24.1789 21.2515 24.2198 21.4223C24.2743 21.6426 24.4311 21.8684 24.6288 22.0337C24.7106 22.0998 24.8674 22.1879 24.9287 22.1328C25.0174 22.0612 24.8947 21.7913 24.8129 21.6371C24.5811 21.2074 24.0289 20.1829 25.0105 19.3841C25.6104 18.8994 26.4557 18.7782 27.2396 19.0371L27.4714 18.8498C27.7441 18.6295 28.194 18.6295 28.4666 18.8498L28.8347 19.1473C29.1074 19.3676 29.1074 19.7312 28.8347 19.9515L28.6916 20.0672C28.8347 20.26 28.937 20.4583 29.0051 20.6676C29.0938 20.9375 28.9233 21.2129 28.6166 21.3286L28.0713 21.5269C27.8804 21.593 27.6691 21.593 27.485 21.5269C27.301 21.4553 27.1578 21.3231 27.1101 21.1634C27.076 21.0587 27.0078 20.8604 26.742 20.6456C26.6534 20.574 26.592 20.5519 26.5784 20.5519C26.5784 20.5519 26.6057 20.6841 26.8033 21.0752C27.1169 21.6756 27.4237 22.5625 26.483 23.3227C25.8558 23.8294 24.9765 23.9506 24.1585 23.6807L23.9131 23.879C23.6404 24.0994 23.1905 24.0994 22.9178 23.879L22.911 23.8845Z" fill="white" stroke="white" stroke-width="0.681672" stroke-miterlimit="10"/>
            <path d="M45.0244 25.3663L20.7296 5.73425C19.0459 6.79187 16.6192 6.69823 15.0718 5.44781L7.49839 11.5677C9.17531 12.9172 9.17531 15.1151 7.49839 16.4647C7.36888 16.5693 7.23254 16.663 7.09621 16.7511L31.391 36.3832C31.5001 36.2675 31.6159 36.1573 31.7455 36.0582C33.4224 34.7086 36.1354 34.7086 37.8055 36.0582L45.3789 29.9383C43.8315 28.6879 43.7156 26.7269 45.0244 25.3663Z" stroke="white" stroke-width="1.84733" stroke-linecap="round" stroke-linejoin="round"/>
        </g>
    </g>
    <defs>
        <clipPath id="clip0_256_86">
            <rect width="53" height="50" fill="white"/>
        </clipPath>
        <clipPath id="clip1_256_86">
            <rect width="53" height="50" fill="white"/>
        </clipPath>
    </defs>
</svg>
