<svg width="54" height="54" viewBox="0 0 54 54" fill="none" xmlns="http://www.w3.org/2000/svg">
    <g clip-path="url(#clip0_787_3810)">
        <path d="M52.5286 31.9293C53.0111 31.7328 53.1303 31.3158 53.1541 31.143C53.1839 30.9703 53.2018 30.5354 52.8026 30.2018C51.8495 29.4095 51.3015 28.242 51.3015 27.0029C51.3015 25.7639 51.8495 24.5963 52.8026 23.804C53.2018 23.4704 53.1839 23.0356 53.1541 22.8628C53.1243 22.6901 53.0111 22.2671 52.5286 22.0765C51.3789 21.6178 50.4973 20.6766 50.116 19.4971C49.7348 18.3177 49.8897 17.0369 50.5509 15.9885C50.8309 15.5477 50.676 15.1366 50.5986 14.9817C50.5211 14.8269 50.2769 14.4635 49.7586 14.4277C48.5196 14.3443 47.3937 13.7248 46.667 12.7181C45.9402 11.7173 45.696 10.4485 45.9998 9.24518C46.1249 8.73884 45.8568 8.39929 45.7317 8.27419C45.6066 8.1491 45.2671 7.88103 44.7607 8.00613C43.5574 8.30994 42.2945 8.0657 41.2878 7.33895C40.287 6.6122 39.6616 5.48037 39.5782 4.24728C39.5424 3.72307 39.179 3.48479 39.0242 3.40735C38.8693 3.3299 38.4582 3.17502 38.0174 3.455C36.969 4.11623 35.6883 4.27706 34.5088 3.88986C33.3293 3.50861 32.3881 2.62698 31.9294 1.47729C31.7328 0.99477 31.3158 0.875631 31.1431 0.851803C30.9703 0.822018 30.5355 0.804147 30.2019 1.20326C29.4096 2.15638 28.242 2.70442 27.003 2.70442C25.7639 2.70442 24.5964 2.15638 23.8041 1.20326C23.4705 0.804147 23.0356 0.822018 22.8629 0.851803C22.6901 0.881588 22.2731 0.99477 22.0766 1.47729C21.6179 2.62698 20.6767 3.50861 19.4972 3.88986C18.3177 4.27111 17.037 4.11623 15.9885 3.455C15.5477 3.17502 15.1367 3.3299 14.9818 3.40735C14.8269 3.48479 14.4636 3.72902 14.4278 4.24728C14.3444 5.48633 13.7249 6.6122 12.7182 7.33895C11.7174 8.0657 10.4486 8.30994 9.24524 8.00613C8.7389 7.87508 8.39935 8.1491 8.27425 8.27419C8.14916 8.39929 7.88109 8.73884 8.00619 9.24518C8.31 10.4485 8.06576 11.7114 7.33901 12.7181C6.61226 13.7189 5.48043 14.3443 4.24734 14.4277C3.72313 14.4635 3.48485 14.8269 3.40741 14.9817C3.32997 15.1366 3.17508 15.5477 3.45506 15.9885C4.11629 17.0369 4.27712 18.3177 3.88992 19.4971C3.50868 20.6766 2.62704 21.6178 1.47735 22.0765C0.994831 22.2731 0.875692 22.6901 0.851864 22.8628C0.822079 23.0356 0.804208 23.4704 1.20333 23.804C2.15644 24.5963 2.70448 25.7639 2.70448 27.0029C2.70448 28.242 2.15644 29.4095 1.20333 30.2018C0.804208 30.5354 0.822079 30.9703 0.851864 31.143C0.881649 31.3158 0.994831 31.7328 1.47735 31.9293C2.62704 32.388 3.50868 33.3292 3.88992 34.5087C4.27117 35.6882 4.11629 36.9689 3.45506 38.0174C3.17508 38.4582 3.32997 38.8692 3.40741 39.0241C3.48485 39.179 3.72908 39.5424 4.24734 39.5781C5.48639 39.6615 6.61226 40.281 7.33901 41.2877C8.06576 42.2885 8.31 43.5574 8.00619 44.7607C7.88109 45.267 8.14916 45.6065 8.27425 45.7316C8.39935 45.8567 8.7389 46.1248 9.24524 45.9997C10.4486 45.6959 11.7114 45.9401 12.7182 46.6669C13.7189 47.3936 14.3444 48.5255 14.4278 49.7586C14.4636 50.2768 14.8269 50.5211 14.9818 50.5985C15.1367 50.6759 15.5477 50.8308 15.9885 50.5508C17.037 49.8896 18.3177 49.7288 19.4972 50.116C20.6767 50.4972 21.6179 51.3789 22.0766 52.5286C22.2731 53.0111 22.6901 53.1302 22.8629 53.154C23.0356 53.1838 23.4705 53.2017 23.8041 52.8026C24.5964 51.8495 25.7639 51.3014 27.003 51.3014C28.242 51.3014 29.4096 51.8495 30.2019 52.8026C30.5355 53.2017 30.9703 53.1838 31.1431 53.154C31.3158 53.1243 31.7388 53.0111 31.9294 52.5286C32.3881 51.3789 33.3293 50.4972 34.5088 50.116C35.6883 49.7347 36.969 49.8896 38.0174 50.5508C38.4582 50.8308 38.8693 50.6759 39.0242 50.5985C39.179 50.5211 39.5424 50.2768 39.5782 49.7586C39.6616 48.5195 40.2811 47.3936 41.2878 46.6669C42.2886 45.9401 43.5574 45.6959 44.7607 45.9997C45.2671 46.1308 45.6066 45.8567 45.7317 45.7316C45.8568 45.6065 46.1249 45.267 45.9998 44.7607C45.696 43.5574 45.9402 42.2945 46.667 41.2877C47.3937 40.287 48.5255 39.6615 49.7586 39.5781C50.2828 39.5424 50.5211 39.179 50.5986 39.0241C50.676 38.8692 50.8309 38.4582 50.5509 38.0174C49.8897 36.9689 49.7288 35.6882 50.116 34.5087C50.4973 33.3292 51.3789 32.388 52.5286 31.9293Z" stroke="white" stroke-width="1.65008" stroke-linecap="round" stroke-linejoin="round"/>
        <path d="M21.6313 33.6909V33.9043C21.6313 34.2465 21.5849 34.5536 21.4921 34.8257C21.3994 35.0978 21.2685 35.3297 21.0995 35.5214C20.9304 35.711 20.7284 35.8563 20.4934 35.9573C20.2605 36.0583 20.0018 36.1088 19.7174 36.1088C19.435 36.1088 19.1763 36.0583 18.9413 35.9573C18.7084 35.8563 18.5064 35.711 18.3353 35.5214C18.1642 35.3297 18.0312 35.0978 17.9364 34.8257C17.8437 34.5536 17.7973 34.2465 17.7973 33.9043V33.6909C17.7973 33.3467 17.8437 33.0396 17.9364 32.7696C18.0292 32.4975 18.1601 32.2656 18.3291 32.0739C18.5002 31.8822 18.7022 31.7358 18.9351 31.6348C19.1701 31.5338 19.4288 31.4833 19.7112 31.4833C19.9956 31.4833 20.2543 31.5338 20.4873 31.6348C20.7222 31.7358 20.9242 31.8822 21.0933 32.0739C21.2644 32.2656 21.3963 32.4975 21.489 32.7696C21.5839 33.0396 21.6313 33.3467 21.6313 33.6909ZM20.6944 33.9043V33.6848C20.6944 33.4457 20.6728 33.2354 20.6295 33.054C20.5862 32.8726 20.5223 32.7201 20.4378 32.5964C20.3533 32.4727 20.2502 32.38 20.1286 32.3181C20.007 32.2542 19.8678 32.2223 19.7112 32.2223C19.5545 32.2223 19.4154 32.2542 19.2938 32.3181C19.1742 32.38 19.0722 32.4727 18.9877 32.5964C18.9052 32.7201 18.8423 32.8726 18.7991 33.054C18.7558 33.2354 18.7341 33.4457 18.7341 33.6848V33.9043C18.7341 34.1413 18.7558 34.3516 18.7991 34.535C18.8423 34.7164 18.9062 34.87 18.9908 34.9957C19.0753 35.1194 19.1783 35.2132 19.3 35.2771C19.4216 35.341 19.5607 35.373 19.7174 35.373C19.874 35.373 20.0132 35.341 20.1348 35.2771C20.2564 35.2132 20.3584 35.1194 20.4409 34.9957C20.5233 34.87 20.5862 34.7164 20.6295 34.535C20.6728 34.3516 20.6944 34.1413 20.6944 33.9043ZM23.2267 31.5452V36.047H22.2991V31.5452H23.2267ZM25.02 33.4683V34.1918H22.9732V33.4683H25.02ZM25.2365 31.5452V32.2718H22.9732V31.5452H25.2365ZM26.702 31.5452V36.047H25.7744V31.5452H26.702ZM28.4953 33.4683V34.1918H26.4485V33.4683H28.4953ZM28.7118 31.5452V32.2718H26.4485V31.5452H28.7118ZM32.2706 35.3235V36.047H29.8743V35.3235H32.2706ZM30.1773 31.5452V36.047H29.2498V31.5452H30.1773ZM31.9583 33.3787V34.0836H29.8743V33.3787H31.9583ZM32.2675 31.5452V32.2718H29.8743V31.5452H32.2675ZM32.8117 31.5452H34.4906C34.8348 31.5452 35.1306 31.5967 35.378 31.6997C35.6274 31.8028 35.8191 31.9553 35.9531 32.1574C36.0871 32.3594 36.154 32.6077 36.154 32.9025C36.154 33.1437 36.1128 33.3508 36.0304 33.524C35.95 33.6951 35.8356 33.8383 35.6872 33.9538C35.5408 34.0671 35.3687 34.1578 35.1708 34.2259L34.8771 34.3804H33.4177L33.4115 33.6569H34.4968C34.6596 33.6569 34.7946 33.6281 34.9018 33.5704C35.009 33.5126 35.0894 33.4323 35.143 33.3292C35.1986 33.2261 35.2265 33.1066 35.2265 32.9705C35.2265 32.8262 35.1997 32.7015 35.1461 32.5964C35.0925 32.4913 35.0111 32.4109 34.9018 32.3552C34.7926 32.2996 34.6555 32.2718 34.4906 32.2718H33.7392V36.047H32.8117V31.5452ZM35.3285 36.047L34.302 34.0403L35.2821 34.0342L36.321 36.0037V36.047H35.3285Z" fill="white"/>
        <path d="M18.7694 26.6663H17.0354L17.0261 25.7112H18.482C18.7385 25.7112 18.9487 25.6788 19.1125 25.6139C19.2763 25.5459 19.3984 25.4485 19.4788 25.3218C19.5623 25.192 19.604 25.0343 19.604 24.8489C19.604 24.6387 19.5638 24.4687 19.4834 24.3389C19.4062 24.209 19.2841 24.1148 19.1172 24.056C18.9533 23.9973 18.7416 23.9679 18.482 23.9679H17.5176V29.629H16.1267V22.8784H18.482C18.8745 22.8784 19.2253 22.9155 19.5344 22.9897C19.8466 23.0638 20.1109 23.1767 20.3273 23.3281C20.5436 23.4796 20.709 23.6712 20.8234 23.903C20.9377 24.1318 20.9949 24.4038 20.9949 24.719C20.9949 24.9972 20.9316 25.2538 20.8048 25.4887C20.6812 25.7236 20.4849 25.9152 20.216 26.0636C19.9502 26.212 19.6024 26.2939 19.1728 26.3093L18.7694 26.6663ZM18.7092 29.629H16.6552L17.1977 28.5441H18.7092C18.9533 28.5441 19.1527 28.5055 19.3073 28.4282C19.4618 28.3478 19.5762 28.2396 19.6504 28.1036C19.7245 27.9676 19.7616 27.8115 19.7616 27.6354C19.7616 27.4375 19.7276 27.266 19.6596 27.1207C19.5947 26.9754 19.4896 26.8642 19.3443 26.7869C19.1991 26.7065 19.0074 26.6663 18.7694 26.6663H17.4295L17.4388 25.7112H19.1079L19.4278 26.0868C19.8389 26.0806 20.1696 26.1532 20.42 26.3047C20.6735 26.4531 20.8574 26.6463 20.9717 26.8843C21.0892 27.1223 21.1479 27.3773 21.1479 27.6493C21.1479 28.082 21.0536 28.4467 20.8651 28.7435C20.6765 29.0371 20.3999 29.2581 20.0352 29.4065C19.6735 29.5548 19.2315 29.629 18.7092 29.629ZM26.7209 28.5441V29.629H23.1277V28.5441H26.7209ZM23.582 22.8784V29.629H22.1911V22.8784H23.582ZM26.2526 25.6278V26.6849H23.1277V25.6278H26.2526ZM26.7163 22.8784V23.9679H23.1277V22.8784H26.7163ZM31.0467 27.8625C31.0467 27.742 31.0282 27.6338 30.9911 27.538C30.9571 27.4391 30.8922 27.3494 30.7963 27.2691C30.7005 27.1856 30.5661 27.1037 30.393 27.0234C30.2199 26.943 29.9958 26.8595 29.7207 26.773C29.4147 26.6741 29.1241 26.5628 28.849 26.4392C28.577 26.3155 28.3359 26.1718 28.1258 26.008C27.9187 25.8411 27.7548 25.6479 27.6343 25.4284C27.5168 25.209 27.4581 24.954 27.4581 24.6634C27.4581 24.3821 27.5199 24.1271 27.6436 23.8984C27.7672 23.6666 27.9403 23.4688 28.1628 23.3049C28.3854 23.138 28.6481 23.0097 28.951 22.9201C29.257 22.8305 29.5924 22.7857 29.9571 22.7857C30.4548 22.7857 30.8891 22.8753 31.26 23.0546C31.6309 23.2338 31.9184 23.4796 32.1224 23.7918C32.3295 24.1039 32.433 24.4609 32.433 24.8628H31.0513C31.0513 24.665 31.0096 24.4919 30.9262 24.3435C30.8458 24.192 30.7222 24.073 30.5552 23.9865C30.3914 23.8999 30.1843 23.8567 29.934 23.8567C29.6929 23.8567 29.492 23.8938 29.3312 23.9679C29.1705 24.039 29.0499 24.1364 28.9696 24.26C28.8892 24.3806 28.849 24.5166 28.849 24.668C28.849 24.7824 28.8769 24.886 28.9325 24.9787C28.9912 25.0714 29.0778 25.158 29.1921 25.2383C29.3065 25.3187 29.4471 25.3944 29.614 25.4655C29.781 25.5366 29.9741 25.6061 30.1936 25.6741C30.5614 25.7854 30.8844 25.9106 31.1626 26.0497C31.4439 26.1888 31.6788 26.3449 31.8674 26.518C32.0559 26.6911 32.1981 26.8874 32.2939 27.1068C32.3897 27.3263 32.4376 27.5751 32.4376 27.8533C32.4376 28.1469 32.3805 28.4096 32.2661 28.6415C32.1517 28.8733 31.9864 29.0696 31.77 29.2303C31.5536 29.391 31.2955 29.5131 30.9957 29.5966C30.6959 29.68 30.3605 29.7218 29.9896 29.7218C29.6558 29.7218 29.3266 29.6785 29.002 29.5919C28.6775 29.5023 28.3823 29.3678 28.1165 29.1886C27.8537 29.0093 27.6436 28.7806 27.4859 28.5024C27.3283 28.2242 27.2495 27.895 27.2495 27.5148H28.645C28.645 27.725 28.6775 27.9027 28.7424 28.048C28.8073 28.1933 28.8985 28.3107 29.0159 28.4004C29.1365 28.49 29.2787 28.5549 29.4425 28.5951C29.6094 28.6353 29.7918 28.6554 29.9896 28.6554C30.2307 28.6554 30.4285 28.6214 30.5831 28.5534C30.7407 28.4854 30.8566 28.3911 30.9308 28.2706C31.0081 28.15 31.0467 28.014 31.0467 27.8625ZM36.4018 22.8784V29.629H35.0155V22.8784H36.4018ZM38.4789 22.8784V23.9679H32.9708V22.8784H38.4789Z" fill="white"/>
        <path d="M27.7892 16.5008L26.9969 14.8984L26.2106 16.5008L24.4414 16.757L25.7222 18.002L25.4183 19.7593L26.9969 18.9312L28.5755 19.7593L28.2777 18.002L29.5525 16.757L27.7892 16.5008Z" fill="white"/>
        <path d="M21.8561 18.1867L21.5225 17.5076L21.1889 18.1867L20.4384 18.2939L20.9804 18.8181L20.8553 19.5627L21.5225 19.2113L22.1897 19.5627L22.0646 18.8181L22.6007 18.2939L21.8561 18.1867Z" fill="white"/>
        <path d="M17.7398 19.795L17.4836 19.2767L17.2275 19.795L16.6497 19.8784L17.0666 20.2835L16.9713 20.8553L17.4836 20.5813L17.9959 20.8553L17.8947 20.2835L18.3117 19.8784L17.7398 19.795Z" fill="white"/>
        <path d="M32.8111 18.1867L32.4775 17.5076L32.1439 18.1867L31.3933 18.2939L31.9354 18.8181L31.8043 19.5627L32.4775 19.2113L33.1447 19.5627L33.0136 18.8181L33.5557 18.2939L32.8111 18.1867Z" fill="white"/>
        <path d="M37.3441 19.8784L36.7723 19.795L36.5161 19.2767L36.26 19.795L35.6821 19.8784L36.0991 20.2835L36.0038 20.8553L36.5161 20.5813L37.0284 20.8553L36.9271 20.2835L37.3441 19.8784Z" fill="white"/>
        <path d="M26.997 47.769C38.469 47.769 47.769 38.469 47.769 26.997C47.769 15.525 38.469 6.22504 26.997 6.22504C15.525 6.22504 6.22504 15.525 6.22504 26.997C6.22504 38.469 15.525 47.769 26.997 47.769Z" stroke="white" stroke-width="1.60838" stroke-linecap="round" stroke-linejoin="round"/>
        <path d="M26.9971 44.725C36.788 44.725 44.7251 36.7879 44.7251 26.997C44.7251 17.2061 36.788 9.26904 26.9971 9.26904C17.2062 9.26904 9.26917 17.2061 9.26917 26.997C9.26917 36.7879 17.2062 44.725 26.9971 44.725Z" stroke="white" stroke-width="1.12587" stroke-linecap="round" stroke-linejoin="round"/>
    </g>
    <defs>
        <clipPath id="clip0_787_3810">
            <rect width="53.994" height="54" fill="white"/>
        </clipPath>
    </defs>
</svg>
