<svg width="91" height="74" viewBox="0 0 91 74" fill="none" xmlns="http://www.w3.org/2000/svg">
    <path d="M38 0V20.5016C38 31.1164 36.7353 39.9115 34.206 46.8262C31.6767 53.741 27.2805 59.5639 21.0777 64.3557C14.8748 69.0869 7.82884 72.3016 0 74V57.5016C5.60063 54.4082 8.79239 50.1623 9.51506 44.7639H0V0H38Z" fill="#13B2AD"/>
    <path d="M91 0V20.5016C91 31.1164 89.7353 39.9115 87.206 46.8262C84.6767 53.741 80.2805 59.5639 74.0777 64.3557C67.8748 69.0869 60.8288 72.3016 53 74V57.5016C58.6006 54.4082 61.7924 50.1623 62.5151 44.7639H53V0H91Z" fill="#13B2AD"/>
</svg>
